<svg xmlns="http://www.w3.org/2000/svg" viewBox="0 0 320 220" role="img" aria-labelledby="title desc">
  <title id="title">Unlim8ted Scrollys</title>
  <desc id="desc">A colorful scroll-controlled story scene with panels, text bubbles, and animated path marks.</desc>
  <defs>
    <linearGradient id="sky" x1="0" x2="1" y1="0" y2="1">
      <stop offset="0" stop-color="#9bd8e8"/>
      <stop offset="0.48" stop-color="#f3d79b"/>
      <stop offset="1" stop-color="#d04b6b"/>
    </linearGradient>
    <linearGradient id="panel" x1="0" x2="0" y1="0" y2="1">
      <stop offset="0" stop-color="#fff8e7"/>
      <stop offset="1" stop-color="#f2b84b"/>
    </linearGradient>
    <filter id="shadow" x="-20%" y="-20%" width="140%" height="150%">
      <feDropShadow dx="0" dy="10" stdDeviation="8" flood-color="#11161b" flood-opacity="0.24"/>
    </filter>
  </defs>
  <rect width="320" height="220" rx="24" fill="url(#sky)"/>
  <path d="M0 163Q54 141 109 159T218 157T320 141V220H0Z" fill="#315d4a" opacity=".9"/>
  <path d="M25 157C58 122 83 92 123 101C157 108 167 137 202 127C234 118 246 78 296 67" fill="none" stroke="#11161b" stroke-width="8" stroke-linecap="round" stroke-dasharray="1 20"/>
  <g filter="url(#shadow)">
    <rect x="26" y="32" width="83" height="110" rx="10" fill="url(#panel)" stroke="#11161b" stroke-width="5"/>
    <rect x="119" y="57" width="83" height="110" rx="10" fill="#eafcff" stroke="#11161b" stroke-width="5"/>
    <rect x="212" y="25" width="83" height="110" rx="10" fill="#fff8e7" stroke="#11161b" stroke-width="5"/>
  </g>
  <path d="M44 61H89M44 78H76M44 95H92" fill="none" stroke="#11161b" stroke-width="5" stroke-linecap="round"/>
  <path d="M138 86H181M138 103H168M138 120H184" fill="none" stroke="#11161b" stroke-width="5" stroke-linecap="round"/>
  <path d="M231 54H276M231 71H263M231 88H279" fill="none" stroke="#11161b" stroke-width="5" stroke-linecap="round"/>
  <circle cx="68" cy="171" r="16" fill="#d7a16f" stroke="#11161b" stroke-width="5"/>
  <rect x="55" y="188" width="26" height="24" rx="4" fill="#76598c" stroke="#11161b" stroke-width="5"/>
  <circle cx="168" cy="178" r="16" fill="#d7a16f" stroke="#11161b" stroke-width="5"/>
  <rect x="155" y="195" width="26" height="21" rx="4" fill="#4f85a8" stroke="#11161b" stroke-width="5"/>
  <path d="M208 168L266 158M210 188L264 197" fill="none" stroke="#11161b" stroke-width="7" stroke-linecap="round"/>
  <path d="M258 148L291 130L286 166Z" fill="#ffd84d" stroke="#11161b" stroke-width="5" stroke-linejoin="round"/>
</svg>
